<svg xmlns="http://www.w3.org/2000/svg"><defs>
<svg id="admin_panel_settings" viewBox="0 -960 960 960"><path d="M680-280q25 0 42.5-17.5T740-340q0-25-17.5-42.5T680-400q-25 0-42.5 17.5T620-340q0 25 17.5 42.5T680-280Zm0 120q31 0 57-14.5t42-38.5q-22-13-47-20t-52-7q-27 0-52 7t-47 20q16 24 42 38.5t57 14.5ZM480-80q-139-35-229.5-159.5T160-516v-244l320-120 320 120v227q-19-8-39-14.5t-41-9.5v-147l-240-90-240 90v188q0 47 12.5 94t35 89.5Q310-290 342-254t71 60q11 32 29 61t41 52q-1 0-1.5.5t-1.5.5Zm200 0q-83 0-141.5-58.5T480-280q0-83 58.5-141.5T680-480q83 0 141.5 58.5T880-280q0 83-58.5 141.5T680-80ZM480-494Z"/></svg>
<svg id="analytics" viewBox="0 -960 960 960"><path d="M280-280h80v-200h-80v200Zm320 0h80v-400h-80v400Zm-160 0h80v-120h-80v120Zm0-200h80v-80h-80v80ZM200-120q-33 0-56.5-23.5T120-200v-560q0-33 23.5-56.5T200-840h560q33 0 56.5 23.5T840-760v560q0 33-23.5 56.5T760-120H200Zm0-80h560v-560H200v560Zm0-560v560-560Z"/></svg>
<svg id="attach_money" viewBox="0 -960 960 960"><path d="M441-120v-86q-53-12-91.5-46T293-348l74-30q15 48 44.5 73t77.5 25q41 0 69.5-18.5T587-356q0-35-22-55.5T463-458q-86-27-118-64.5T313-614q0-65 42-101t86-41v-84h80v84q50 8 82.5 36.5T651-650l-74 32q-12-32-34-48t-60-16q-44 0-67 19.5T393-614q0 33 30 52t104 40q69 20 104.5 63.5T667-358q0 71-42 108t-104 46v84h-80Z"/></svg>
<svg id="bar_chart" viewBox="0 -960 960 960"><path d="M640-160v-280h160v280H640Zm-240 0v-640h160v640H400Zm-240 0v-440h160v440H160Z"/></svg>
<svg id="block" viewBox="0 -960 960 960"><path d="M480-80q-83 0-156-31.5T197-197q-54-54-85.5-127T80-480q0-83 31.5-156T197-763q54-54 127-85.5T480-880q83 0 156 31.5T763-763q54 54 85.5 127T880-480q0 83-31.5 156T763-197q-54 54-127 85.5T480-80Zm0-80q54 0 104-17.5t92-50.5L228-676q-33 42-50.5 92T160-480q0 134 93 227t227 93Zm252-124q33-42 50.5-92T800-480q0-134-93-227t-227-93q-54 0-104 17.5T284-732l448 448ZM480-480Z"/></svg>
<svg id="bookmark" viewBox="0 -960 960 960"><path d="M200-120v-640q0-33 23.5-56.5T280-840h400q33 0 56.5 23.5T760-760v640L480-240 200-120Zm80-122 200-86 200 86v-518H280v518Zm0-518h400-400Z"/></svg>
<svg id="bookmark_add" viewBox="0 -960 960 960"><path d="M200-120v-640q0-33 23.5-56.5T280-840h240v80H280v518l200-86 200 86v-278h80v400L480-240 200-120Zm80-640h240-240Zm400 160v-80h-80v-80h80v-80h80v80h80v80h-80v80h-80Z"/></svg>
<svg id="category" viewBox="0 -960 960 960"><path d="m260-520 220-360 220 360H260ZM700-80q-75 0-127.5-52.5T520-260q0-75 52.5-127.5T700-440q75 0 127.5 52.5T880-260q0 75-52.5 127.5T700-80Zm-580-20v-320h320v320H120Zm580-60q42 0 71-29t29-71q0-42-29-71t-71-29q-42 0-71 29t-29 71q0 42 29 71t71 29Zm-500-20h160v-160H200v160Zm202-420h156l-78-126-78 126Zm78 0ZM360-340Zm340 80Z"/></svg>
<svg id="check_circle" viewBox="0 -960 960 960"><path d="m424-296 282-282-56-56-226 226-114-114-56 56 170 170Zm56 216q-83 0-156-31.5T197-197q-54-54-85.5-127T80-480q0-83 31.5-156T197-763q54-54 127-85.5T480-880q83 0 156 31.5T763-763q54 54 85.5 127T880-480q0 83-31.5 156T763-197q-54 54-127 85.5T480-80Zm0-80q134 0 227-93t93-227q0-134-93-227t-227-93q-134 0-227 93t-93 227q0 134 93 227t227 93Zm0-320Z"/></svg>
<svg id="clear_all" viewBox="0 -960 960 960"><path d="M120-280v-80h560v80H120Zm80-160v-80h560v80H200Zm80-160v-80h560v80H280Z"/></svg>
<svg id="close" viewBox="0 -960 960 960"><path d="m256-200-56-56 224-224-224-224 56-56 224 224 224-224 56 56-224 224 224 224-56 56-224-224-224 224Z"/></svg>
<svg id="cloud_upload" viewBox="0 -960 960 960"><path d="M260-160q-91 0-155.5-63T40-377q0-78 47-139t123-78q25-92 100-149t170-57q117 0 198.5 81.5T760-520q69 8 114.5 59.5T920-340q0 75-52.5 127.5T740-160H520q-33 0-56.5-23.5T440-240v-206l-64 62-56-56 160-160 160 160-56 56-64-62v206h220q42 0 71-29t29-71q0-42-29-71t-71-29h-60v-80q0-83-58.5-141.5T480-720q-83 0-141.5 58.5T280-520h-20q-58 0-99 41t-41 99q0 58 41 99t99 41h100v80H260Zm220-280Z"/></svg>
<svg id="currency_rupee" viewBox="0 -960 960 960"><path d="M549-120 280-400v-80h140q53 0 91.5-34.5T558-600H240v-80h306q-17-35-50.5-57.5T420-760H240v-80h480v80H590q14 17 25 37t17 43h88v80h-81q-8 85-70 142.5T420-400h-29l269 280H549Z"/></svg>
<svg id="dashboard" viewBox="0 -960 960 960"><path d="M520-600v-240h320v240H520ZM120-440v-400h320v400H120Zm400 320v-400h320v400H520Zm-400 0v-240h320v240H120Zm80-400h160v-240H200v240Zm400 320h160v-240H600v240Zm0-480h160v-80H600v80ZM200-200h160v-80H200v80Zm160-320Zm240-160Zm0 240ZM360-280Z"/></svg>
<svg id="delete" viewBox="0 -960 960 960"><path d="M280-120q-33 0-56.5-23.5T200-200v-520h-40v-80h200v-40h240v40h200v80h-40v520q0 33-23.5 56.5T680-120H280Zm400-600H280v520h400v-520ZM360-280h80v-360h-80v360Zm160 0h80v-360h-80v360ZM280-720v520-520Z"/></svg>
<svg id="delete_sweep" viewBox="0 -960 960 960"><path d="M600-240v-80h160v80H600Zm0-320v-80h280v80H600Zm0 160v-80h240v80H600ZM120-640H80v-80h160v-60h160v60h160v80h-40v360q0 33-23.5 56.5T440-200H200q-33 0-56.5-23.5T120-280v-360Zm80 0v360h240v-360H200Zm0 0v360-360Z"/></svg>
<svg id="error" viewBox="0 -960 960 960"><path d="M480-280q17 0 28.5-11.5T520-320q0-17-11.5-28.5T480-360q-17 0-28.5 11.5T440-320q0 17 11.5 28.5T480-280Zm-40-160h80v-240h-80v240Zm40 360q-83 0-156-31.5T197-197q-54-54-85.5-127T80-480q0-83 31.5-156T197-763q54-54 127-85.5T480-880q83 0 156 31.5T763-763q54 54 85.5 127T880-480q0 83-31.5 156T763-197q-54 54-127 85.5T480-80Zm0-80q134 0 227-93t93-227q0-134-93-227t-227-93q-134 0-227 93t-93 227q0 134 93 227t227 93Zm0-320Z"/></svg>
<svg id="error_outline" viewBox="0 -960 960 960"><path d="M480-280q17 0 28.5-11.5T520-320q0-17-11.5-28.5T480-360q-17 0-28.5 11.5T440-320q0 17 11.5 28.5T480-280Zm-40-160h80v-240h-80v240Zm40 360q-83 0-156-31.5T197-197q-54-54-85.5-127T80-480q0-83 31.5-156T197-763q54-54 127-85.5T480-880q83 0 156 31.5T763-763q54 54 85.5 127T880-480q0 83-31.5 156T763-197q-54 54-127 85.5T480-80Zm0-80q134 0 227-93t93-227q0-134-93-227t-227-93q-134 0-227 93t-93 227q0 134 93 227t227 93Zm0-320Z"/></svg>
<svg id="filter_alt" viewBox="0 -960 960 960"><path d="M440-160q-17 0-28.5-11.5T400-200v-240L168-736q-15-20-4.5-42t36.5-22h560q26 0 36.5 22t-4.5 42L560-440v240q0 17-11.5 28.5T520-160h-80Zm40-308 198-252H282l198 252Zm0 0Z"/></svg>
<svg id="filter_alt_off" viewBox="0 -960 960 960"><path d="m592-481-57-57 143-182H353l-80-80h487q25 0 36 22t-4 42L592-481ZM791-56 560-287v87q0 17-11.5 28.5T520-160h-80q-17 0-28.5-11.5T400-200v-247L56-791l56-57 736 736-57 56ZM535-538Z"/></svg>
<svg id="filter_list" viewBox="0 -960 960 960"><path d="M400-240v-80h160v80H400ZM240-440v-80h480v80H240ZM120-640v-80h720v80H120Z"/></svg>
<svg id="folder_open" viewBox="0 -960 960 960"><path d="M160-160q-33 0-56.5-23.5T80-240v-480q0-33 23.5-56.5T160-800h240l80 80h320q33 0 56.5 23.5T880-640H447l-80-80H160v480l96-320h684L837-217q-8 26-29.5 41.5T760-160H160Zm84-80h516l72-240H316l-72 240Zm0 0 72-240-72 240Zm-84-400v-80 80Z"/></svg>
<svg id="hourglass_empty" viewBox="0 -960 960 960"><path d="M320-160h320v-120q0-66-47-113t-113-47q-66 0-113 47t-47 113v120Zm160-360q66 0 113-47t47-113v-120H320v120q0 66 47 113t113 47ZM160-80v-80h80v-120q0-61 28.5-114.5T348-480q-51-32-79.5-85.5T240-680v-120h-80v-80h640v80h-80v120q0 61-28.5 114.5T612-480q51 32 79.5 85.5T720-280v120h80v80H160Z"/></svg>
<svg id="inbox" viewBox="0 -960 960 960"><path d="M200-120q-33 0-56.5-23.5T120-200v-560q0-33 23.5-56.5T200-840h560q33 0 56.5 23.5T840-760v560q0 33-23.5 56.5T760-120H200Zm0-80h560v-120H640q-30 38-71.5 59T480-240q-47 0-88.5-21T320-320H200v120Zm280-120q38 0 69-22t43-58h168v-360H200v360h168q12 36 43 58t69 22ZM200-200h560-560Z"/></svg>
<svg id="info" viewBox="0 -960 960 960"><path d="M440-280h80v-240h-80v240Zm40-320q17 0 28.5-11.5T520-640q0-17-11.5-28.5T480-680q-17 0-28.5 11.5T440-640q0 17 11.5 28.5T480-600Zm0 520q-83 0-156-31.5T197-197q-54-54-85.5-127T80-480q0-83 31.5-156T197-763q54-54 127-85.5T480-880q83 0 156 31.5T763-763q54 54 85.5 127T880-480q0 83-31.5 156T763-197q-54 54-127 85.5T480-80Zm0-80q134 0 227-93t93-227q0-134-93-227t-227-93q-134 0-227 93t-93 227q0 134 93 227t227 93Zm0-320Z"/></svg>
<svg id="insights" viewBox="0 -960 960 960"><path d="M120-160q-33 0-56.5-23.5T40-240q0-33 23.5-56.5T120-320h10.5q4.5 0 9.5 2l182-182q-2-5-2-9.5V-520q0-33 23.5-56.5T400-600q33 0 56.5 23.5T480-520q0 2-2 20l102 102q5-2 9.5-2h21q4.5 0 9.5 2l142-142q-2-5-2-9.5V-560q0-33 23.5-56.5T840-640q33 0 56.5 23.5T920-560q0 33-23.5 56.5T840-480h-10.5q-4.5 0-9.5-2L678-340q2 5 2 9.5v10.5q0 33-23.5 56.5T600-240q-33 0-56.5-23.5T520-320v-10.5q0-4.5 2-9.5L420-442q-5 2-9.5 2H400q-2 0-20-2L198-260q2 5 2 9.5v10.5q0 33-23.5 56.5T120-160Zm40-401-25-54-54-25 54-25 25-54 25 54 54 25-54 25-25 54Zm440-39-38-82-82-38 82-38 38-82 38 82 82 38-82 38-38 82Z"/></svg>
<svg id="inventory_2" viewBox="0 -960 960 960"><path d="M200-80q-33 0-56.5-23.5T120-160v-451q-18-11-29-28.5T80-680v-120q0-33 23.5-56.5T160-880h640q33 0 56.5 23.5T880-800v120q0 23-11 40.5T840-611v451q0 33-23.5 56.5T760-80H200Zm0-520v440h560v-440H200Zm-40-80h640v-120H160v120Zm200 280h240v-80H360v80Zm120 20Z"/></svg>
<svg id="layers" viewBox="0 -960 960 960"><path d="M480-118 120-398l66-50 294 228 294-228 66 50-360 280Zm0-202L120-600l360-280 360 280-360 280Zm0-280Zm0 178 230-178-230-178-230 178 230 178Z"/></svg>
<svg id="list" viewBox="0 -960 960 960"><path d="M280-600v-80h560v80H280Zm0 160v-80h560v80H280Zm0 160v-80h560v80H280ZM160-600q-17 0-28.5-11.5T120-640q0-17 11.5-28.5T160-680q17 0 28.5 11.5T200-640q0 17-11.5 28.5T160-600Zm0 160q-17 0-28.5-11.5T120-480q0-17 11.5-28.5T160-520q17 0 28.5 11.5T200-480q0 17-11.5 28.5T160-440Zm0 160q-17 0-28.5-11.5T120-320q0-17 11.5-28.5T160-360q17 0 28.5 11.5T200-320q0 17-11.5 28.5T160-280Z"/></svg>
<svg id="local_shipping" viewBox="0 -960 960 960"><path d="M240-160q-50 0-85-35t-35-85H40v-440q0-33 23.5-56.5T120-800h560v160h120l120 160v200h-80q0 50-35 85t-85 35q-50 0-85-35t-35-85H360q0 50-35 85t-85 35Zm0-80q17 0 28.5-11.5T280-280q0-17-11.5-28.5T240-320q-17 0-28.5 11.5T200-280q0 17 11.5 28.5T240-240ZM120-360h32q17-18 39-29t49-11q27 0 49 11t39 29h272v-360H120v360Zm600 120q17 0 28.5-11.5T760-280q0-17-11.5-28.5T720-320q-17 0-28.5 11.5T680-280q0 17 11.5 28.5T720-240Zm-40-200h170l-90-120h-80v120ZM360-540Z"/></svg>
<svg id="logout" viewBox="0 -960 960 960"><path d="M200-120q-33 0-56.5-23.5T120-200v-560q0-33 23.5-56.5T200-840h280v80H200v560h280v80H200Zm440-160-55-58 102-102H360v-80h327L585-622l55-58 200 200-200 200Z"/></svg>
<svg id="more_vert" viewBox="0 -960 960 960"><path d="M480-160q-33 0-56.5-23.5T400-240q0-33 23.5-56.5T480-320q33 0 56.5 23.5T560-240q0 33-23.5 56.5T480-160Zm0-240q-33 0-56.5-23.5T400-480q0-33 23.5-56.5T480-560q33 0 56.5 23.5T560-480q0 33-23.5 56.5T480-400Zm0-240q-33 0-56.5-23.5T400-720q0-33 23.5-56.5T480-800q33 0 56.5 23.5T560-720q0 33-23.5 56.5T480-640Z"/></svg>
<svg id="person" viewBox="0 -960 960 960"><path d="M480-480q-66 0-113-47t-47-113q0-66 47-113t113-47q66 0 113 47t47 113q0 66-47 113t-113 47ZM160-160v-112q0-34 17.5-62.5T224-378q62-31 126-46.5T480-440q66 0 130 15.5T736-378q29 15 46.5 43.5T800-272v112H160Zm80-80h480v-32q0-11-5.5-20T700-306q-54-27-109-40.5T480-360q-56 0-111 13.5T260-306q-9 5-14.5 14t-5.5 20v32Zm240-320q33 0 56.5-23.5T560-640q0-33-23.5-56.5T480-720q-33 0-56.5 23.5T400-640q0 33 23.5 56.5T480-560Zm0-80Zm0 400Z"/></svg>
<svg id="price_check" viewBox="0 -960 960 960"><path d="M260-361v-40H160v-80h200v-80H200q-17 0-28.5-11.5T160-601v-160q0-17 11.5-28.5T200-801h60v-40h80v40h100v80H240v80h160q17 0 28.5 11.5T440-601v160q0 17-11.5 28.5T400-401h-60v40h-80Zm298 240L388-291l56-56 114 114 226-226 56 56-282 282Z"/></svg>
<svg id="receipt" viewBox="0 -960 960 960"><path d="M120-80v-800l60 60 60-60 60 60 60-60 60 60 60-60 60 60 60-60 60 60 60-60 60 60 60-60v800l-60-60-60 60-60-60-60 60-60-60-60 60-60-60-60 60-60-60-60 60-60-60-60 60Zm120-200h480v-80H240v80Zm0-160h480v-80H240v80Zm0-160h480v-80H240v80Zm-40 404h560v-568H200v568Zm0-568v568-568Z"/></svg>
<svg id="receipt_long" viewBox="0 -960 960 960"><path d="M240-80q-50 0-85-35t-35-85v-120h120v-560l60 60 60-60 60 60 60-60 60 60 60-60 60 60 60-60 60 60 60-60v680q0 50-35 85t-85 35H240Zm480-80q17 0 28.5-11.5T760-200v-560H320v440h360v120q0 17 11.5 28.5T720-160ZM360-600v-80h240v80H360Zm0 120v-80h240v80H360Zm320-120q-17 0-28.5-11.5T640-640q0-17 11.5-28.5T680-680q17 0 28.5 11.5T720-640q0 17-11.5 28.5T680-600Zm0 120q-17 0-28.5-11.5T640-520q0-17 11.5-28.5T680-560q17 0 28.5 11.5T720-520q0 17-11.5 28.5T680-480ZM240-160h360v-80H200v40q0 17 11.5 28.5T240-160Zm-40 0v-80 80Z"/></svg>
<svg id="schedule" viewBox="0 -960 960 960"><path d="m612-292 56-56-148-148v-184h-80v216l172 172ZM480-80q-83 0-156-31.5T197-197q-54-54-85.5-127T80-480q0-83 31.5-156T197-763q54-54 127-85.5T480-880q83 0 156 31.5T763-763q54 54 85.5 127T880-480q0 83-31.5 156T763-197q-54 54-127 85.5T480-80Zm0-400Zm0 320q133 0 226.5-93.5T800-480q0-133-93.5-226.5T480-800q-133 0-226.5 93.5T160-480q0 133 93.5 226.5T480-160Z"/></svg>
<svg id="search" viewBox="0 -960 960 960"><path d="M784-120 532-372q-30 24-69 38t-83 14q-109 0-184.5-75.5T120-580q0-109 75.5-184.5T380-840q109 0 184.5 75.5T640-580q0 44-14 83t-38 69l252 252-56 56ZM380-400q75 0 127.5-52.5T560-580q0-75-52.5-127.5T380-760q-75 0-127.5 52.5T200-580q0 75 52.5 127.5T380-400Z"/></svg>
<svg id="shopping_basket" viewBox="0 -960 960 960"><path d="M221-120q-27 0-48-16.5T144-179L42-549q-5-19 6.5-35T80-600h190l176-262q5-8 14-13t19-5q10 0 19 5t14 13l176 262h192q20 0 31.5 16t6.5 35L816-179q-8 26-29 42.5T739-120H221Zm-1-80h520l88-320H132l88 320Zm260-80q33 0 56.5-23.5T560-360q0-33-23.5-56.5T480-440q-33 0-56.5 23.5T400-360q0 33 23.5 56.5T480-280ZM367-600h225L479-768 367-600Zm113 240Z"/></svg>
<svg id="show_chart" viewBox="0 -960 960 960"><path d="m140-220-60-60 300-300 160 160 284-320 56 56-340 384-160-160-240 240Z"/></svg>
<svg id="star" viewBox="0 -960 960 960"><path d="m354-287 126-76 126 77-33-144 111-96-146-13-58-136-58 135-146 13 111 97-33 143ZM233-120l65-281L80-590l288-25 112-265 112 265 288 25-218 189 65 281-247-149-247 149Zm247-350Z"/></svg>
<svg id="star_outline" viewBox="0 -960 960 960"><path d="m354-287 126-76 126 77-33-144 111-96-146-13-58-136-58 135-146 13 111 97-33 143ZM233-120l65-281L80-590l288-25 112-265 112 265 288 25-218 189 65 281-247-149-247 149Zm247-350Z"/></svg>
<svg id="trending_up" viewBox="0 -960 960 960"><path d="m136-240-56-56 296-298 160 160 208-206H640v-80h240v240h-80v-104L536-320 376-480 136-240Z"/></svg>
</defs></svg>
